<svg width="27" height="28" viewBox="0 0 27 28" fill="none" xmlns="http://www.w3.org/2000/svg">
<g clip-path="url(#clip0_1738_6115)">
<path d="M18.2979 11.9011L20.6669 12.6118C22.1804 13.0659 22.9372 13.293 23.373 13.8787C23.8088 14.4644 23.8088 15.2545 23.8088 16.8347V25.1274" stroke="white" stroke-width="1.65329" stroke-linejoin="round"/>
<path d="M9.48145 10.7988H12.788M9.48145 15.2076H12.788" stroke="white" stroke-width="1.65329" stroke-linecap="round" stroke-linejoin="round"/>
<path d="M13.8889 25.1272V21.8206C13.8889 20.7814 13.8889 20.2619 13.5661 19.939C13.2432 19.6162 12.7237 19.6162 11.6845 19.6162H10.5823C9.54316 19.6162 9.02358 19.6162 8.70075 19.939C8.37793 20.2619 8.37793 20.7814 8.37793 21.8206V25.1272" stroke="white" stroke-width="1.65329" stroke-linejoin="round"/>
<path d="M2.86816 25.1274H24.912" stroke="white" stroke-width="1.65329" stroke-linecap="round"/>
<path d="M3.96973 25.1274V8.28281C3.96973 5.51548 3.96973 4.13181 4.84176 3.44528C5.7138 2.75876 6.99791 3.1315 9.56614 3.87697L15.0771 5.4766C16.6269 5.92646 17.4018 6.15139 17.85 6.76444C18.2982 7.3775 18.2982 8.21249 18.2982 9.88245V25.1274" stroke="white" stroke-width="1.65329" stroke-linecap="round" stroke-linejoin="round"/>
</g>
<defs>
<clipPath id="clip0_1738_6115">
<rect width="26.3064" height="26.3064" fill="white" transform="translate(0.476562 0.87915)"/>
</clipPath>
</defs>
</svg>
