<svg width="27" height="28" viewBox="0 0 27 28" fill="none" xmlns="http://www.w3.org/2000/svg">
<path d="M3.94368 10.7443H23.4268M8.25805 4.22299L13.6852 10.7443L19.1215 4.22757M23.206 10.2281L19.426 4.55814C19.3309 4.41538 19.2833 4.34399 19.2204 4.29232C19.1647 4.24657 19.1006 4.21225 19.0317 4.19131C18.9538 4.16766 18.868 4.16766 18.6964 4.16766H8.67401C8.50243 4.16766 8.41664 4.16766 8.33877 4.19131C8.26983 4.21225 8.20569 4.24657 8.15003 4.29232C8.08716 4.34399 8.03957 4.41538 7.9444 4.55814L4.16446 10.2281C4.04055 10.4139 3.9786 10.5068 3.9564 10.6068C3.93679 10.6951 3.93933 10.7869 3.96381 10.874C3.99153 10.9725 4.05854 11.0619 4.19256 11.2406L12.9837 22.9621C13.2217 23.2794 13.3407 23.4381 13.4866 23.4948C13.6143 23.5445 13.7561 23.5445 13.8839 23.4948C14.0297 23.4381 14.1487 23.2794 14.3867 22.9621L23.1779 11.2406C23.3119 11.0619 23.3789 10.9725 23.4066 10.874C23.4311 10.7869 23.4336 10.6951 23.414 10.6068C23.3918 10.5068 23.3299 10.4139 23.206 10.2281Z" stroke="#2461A9" stroke-width="1.64415" stroke-linecap="round" stroke-linejoin="round"/>
</svg>
