<svg width="17" height="17" viewBox="0 0 17 17" fill="none" xmlns="http://www.w3.org/2000/svg">
<g clip-path="url(#clip0_1738_6248)">
<path d="M13.1692 14.2939H13.496C14.2625 14.2939 14.8723 13.9447 15.4197 13.4563C16.8105 12.2157 13.5412 10.9606 12.4251 10.9606M11.0918 4.33979C11.2432 4.30977 11.4004 4.29395 11.5617 4.29395C12.7749 4.29395 13.7585 5.18938 13.7585 6.29395C13.7585 7.39851 12.7749 8.29395 11.5617 8.29395C11.4004 8.29395 11.2432 8.27815 11.0918 8.24808" stroke="black" stroke-linecap="round"/>
<path d="M3.74633 11.7015C2.96035 12.1227 0.899548 12.9828 2.15471 14.059C2.76785 14.5847 3.45073 14.9607 4.30927 14.9607H9.20832C10.0669 14.9607 10.7497 14.5847 11.3629 14.059C12.6181 12.9828 10.5573 12.1227 9.77126 11.7015C7.92812 10.7138 5.58945 10.7138 3.74633 11.7015Z" stroke="black"/>
<path d="M9.42513 5.96061C9.42513 7.43337 8.2312 8.62728 6.75846 8.62728C5.2857 8.62728 4.0918 7.43337 4.0918 5.96061C4.0918 4.48785 5.2857 3.29395 6.75846 3.29395C8.2312 3.29395 9.42513 4.48785 9.42513 5.96061Z" stroke="black"/>
</g>
<defs>
<clipPath id="clip0_1738_6248">
<rect width="16" height="16" fill="white" transform="translate(0.758789 0.960693)"/>
</clipPath>
</defs>
</svg>
