<svg width="17" height="17" viewBox="0 0 17 17" fill="none" xmlns="http://www.w3.org/2000/svg">
<path d="M8.75846 15.357C5.07656 15.357 2.0918 12.3722 2.0918 8.69035C2.0918 6.82866 2.8549 5.1452 4.08538 3.9357M8.75846 15.357C8.11646 14.8813 8.21893 14.3273 8.541 13.7735C9.0362 12.9219 9.0362 12.9219 9.0362 11.7866C9.0362 10.6513 9.71086 10.1189 12.0918 10.5951C13.1616 10.8091 13.9412 9.33095 15.33 9.81902M8.75846 15.357C12.0557 15.357 14.7938 12.9634 15.33 9.81902M4.08538 3.9357C4.65157 3.99545 4.96858 4.29878 5.4951 4.85512C6.49473 5.91136 7.49433 5.99949 8.1608 5.64741C9.1604 5.1193 8.3204 4.26388 9.4936 3.799C10.2129 3.51402 10.3499 2.76768 10.0095 2.14088M4.08538 3.9357C5.28843 2.75316 6.93826 2.02368 8.75846 2.02368C9.18606 2.02368 9.60426 2.06394 10.0095 2.14088M15.33 9.81902C15.3925 9.45215 15.4251 9.07508 15.4251 8.69035C15.4251 5.43606 13.0934 2.72638 10.0095 2.14088" stroke="#FFFFFF" stroke-linejoin="round"/>
</svg>
