<svg width="27" height="28" viewBox="0 0 27 28" fill="none" xmlns="http://www.w3.org/2000/svg">
<path d="M23.6058 14.0324C23.6058 19.4806 19.1891 23.8973 13.7409 23.8973C8.29264 23.8973 3.87598 19.4806 3.87598 14.0324C3.87598 8.58414 8.29264 4.16748 13.7409 4.16748M19.2214 14.0324C19.2214 17.0592 16.7677 19.5129 13.7409 19.5129C10.7141 19.5129 8.26038 17.0592 8.26038 14.0324C8.26038 11.0056 10.7141 8.55188 13.7409 8.55188M16.7638 11.1295L21.1032 11.5852L23.4555 8.29202L20.6328 7.3511L19.6918 4.52833L16.3986 6.88064L16.7638 11.1295ZM16.7638 11.1295L13.7409 14.0323" stroke="white" stroke-width="1.64415" stroke-linecap="round" stroke-linejoin="round"/>
</svg>
